<svg width="24" height="24" viewBox="0 0 24 24" fill="none" xmlns="http://www.w3.org/2000/svg">
<g clip-path="url(#clip0_658_368)">
<path d="M4 24L5.333 21.333L8 20L5.333 18.667L4 16L2.667 18.667L0 20L2.667 21.333L4 24Z" fill="black"/>
<path d="M21.333 21.333L24 20L21.333 18.667L20 16L18.667 18.667L16 20L18.667 21.333L20 24L21.333 21.333Z" fill="black"/>
<path d="M13.333 2.667L12 0L10.667 2.667L8 4L10.667 5.333L12 8L13.333 5.333L16 4L13.333 2.667Z" fill="black"/>
<path d="M5 14C5.55228 14 6 13.5523 6 13C6 12.4477 5.55228 12 5 12C4.44771 12 4 12.4477 4 13C4 13.5523 4.44771 14 5 14Z" fill="black"/>
<path d="M1 10C1.55228 10 2 9.55228 2 9C2 8.44771 1.55228 8 1 8C0.447715 8 0 8.44771 0 9C0 9.55228 0.447715 10 1 10Z" fill="black"/>
<path d="M5 6C5.55228 6 6 5.55228 6 5C6 4.44771 5.55228 4 5 4C4.44771 4 4 4.44771 4 5C4 5.55228 4.44771 6 5 6Z" fill="black"/>
<path d="M1 2C1.55228 2 2 1.55228 2 1C2 0.447715 1.55228 0 1 0C0.447715 0 0 0.447715 0 1C0 1.55228 0.447715 2 1 2Z" fill="black"/>
<path d="M23 14C23.5523 14 24 13.5523 24 13C24 12.4477 23.5523 12 23 12C22.4477 12 22 12.4477 22 13C22 13.5523 22.4477 14 23 14Z" fill="black"/>
<path d="M19 10C19.5523 10 20 9.55228 20 9C20 8.44771 19.5523 8 19 8C18.4477 8 18 8.44771 18 9C18 9.55228 18.4477 10 19 10Z" fill="black"/>
<path d="M23 6C23.5523 6 24 5.55228 24 5C24 4.44771 23.5523 4 23 4C22.4477 4 22 4.44771 22 5C22 5.55228 22.4477 6 23 6Z" fill="black"/>
<path d="M19 2C19.5523 2 20 1.55228 20 1C20 0.447715 19.5523 0 19 0C18.4477 0 18 0.447715 18 1C18 1.55228 18.4477 2 19 2Z" fill="black"/>
<path d="M14 24C14.5523 24 15 23.5523 15 23C15 22.4477 14.5523 22 14 22C13.4477 22 13 22.4477 13 23C13 23.5523 13.4477 24 14 24Z" fill="black"/>
<path d="M10 20C10.5523 20 11 19.5523 11 19C11 18.4477 10.5523 18 10 18C9.44771 18 9 18.4477 9 19C9 19.5523 9.44771 20 10 20Z" fill="black"/>
<path d="M14 16C14.5523 16 15 15.5523 15 15C15 14.4477 14.5523 14 14 14C13.4477 14 13 14.4477 13 15C13 15.5523 13.4477 16 14 16Z" fill="black"/>
<path d="M10 12C10.5523 12 11 11.5523 11 11C11 10.4477 10.5523 10 10 10C9.44771 10 9 10.4477 9 11C9 11.5523 9.44771 12 10 12Z" fill="black"/>
</g>
<defs>
<clipPath id="clip0_658_368">
<rect width="24" height="24" fill="white"/>
</clipPath>
</defs>
</svg>
