<svg width="925" height="1129" viewBox="0 0 925 1129" fill="none" xmlns="http://www.w3.org/2000/svg">
<g opacity="0.2">
<g filter="url(#filter0_f_658_394)">
<ellipse cx="554.85" cy="564.404" rx="364.364" ry="354.019" transform="rotate(-91.1105 554.85 564.404)" fill="url(#paint0_linear_658_394)"/>
</g>
<g filter="url(#filter1_f_658_394)">
<ellipse cx="415.158" cy="441.783" rx="266.608" ry="259.038" transform="rotate(-91.1105 415.158 441.783)" fill="url(#paint1_linear_658_394)"/>
</g>
</g>
<g filter="url(#filter2_d_658_394)">
<rect x="399" y="309.721" width="353" height="352.28" rx="10" fill="#141212"/>
<rect x="398" y="308.721" width="355" height="354.28" rx="11" stroke="url(#paint2_linear_658_394)" stroke-width="2" stroke-dasharray="3 3"/>
</g>
<path d="M471.56 567.1C471.2 566.407 470.7 565.887 470.06 565.54C469.42 565.18 468.68 565 467.84 565C466.92 565 466.1 565.207 465.38 565.62C464.66 566.034 464.093 566.62 463.68 567.38C463.28 568.14 463.08 569.02 463.08 570.02C463.08 571.02 463.28 571.907 463.68 572.68C464.093 573.44 464.66 574.027 465.38 574.44C466.1 574.854 466.92 575.06 467.84 575.06C469.08 575.06 470.087 574.714 470.86 574.02C471.633 573.327 472.107 572.387 472.28 571.2H467.06V569.38H474.72V571.16C474.573 572.24 474.187 573.234 473.56 574.14C472.947 575.047 472.14 575.774 471.14 576.32C470.153 576.854 469.053 577.12 467.84 577.12C466.533 577.12 465.34 576.82 464.26 576.22C463.18 575.607 462.32 574.76 461.68 573.68C461.053 572.6 460.74 571.38 460.74 570.02C460.74 568.66 461.053 567.44 461.68 566.36C462.32 565.28 463.18 564.44 464.26 563.84C465.353 563.227 466.547 562.92 467.84 562.92C469.32 562.92 470.633 563.287 471.78 564.02C472.94 564.74 473.78 565.767 474.3 567.1H471.56ZM487.069 571.22C487.069 571.634 487.042 572.007 486.989 572.34H478.569C478.635 573.22 478.962 573.927 479.549 574.46C480.135 574.994 480.855 575.26 481.709 575.26C482.935 575.26 483.802 574.747 484.309 573.72H486.769C486.435 574.734 485.829 575.567 484.949 576.22C484.082 576.86 483.002 577.18 481.709 577.18C480.655 577.18 479.709 576.947 478.869 576.48C478.042 576 477.389 575.334 476.909 574.48C476.442 573.614 476.209 572.614 476.209 571.48C476.209 570.347 476.435 569.354 476.889 568.5C477.355 567.634 478.002 566.967 478.829 566.5C479.669 566.034 480.629 565.8 481.709 565.8C482.749 565.8 483.675 566.027 484.489 566.48C485.302 566.934 485.935 567.574 486.389 568.4C486.842 569.214 487.069 570.154 487.069 571.22ZM484.689 570.5C484.675 569.66 484.375 568.987 483.789 568.48C483.202 567.974 482.475 567.72 481.609 567.72C480.822 567.72 480.149 567.974 479.589 568.48C479.029 568.974 478.695 569.647 478.589 570.5H484.689ZM494.873 565.8C495.739 565.8 496.513 565.98 497.193 566.34C497.886 566.7 498.426 567.234 498.813 567.94C499.199 568.647 499.393 569.5 499.393 570.5V577H497.133V570.84C497.133 569.854 496.886 569.1 496.393 568.58C495.899 568.047 495.226 567.78 494.373 567.78C493.519 567.78 492.839 568.047 492.333 568.58C491.839 569.1 491.593 569.854 491.593 570.84V577H489.313V565.98H491.593V567.24C491.966 566.787 492.439 566.434 493.013 566.18C493.599 565.927 494.219 565.8 494.873 565.8ZM512.401 571.22C512.401 571.634 512.374 572.007 512.321 572.34H503.901C503.967 573.22 504.294 573.927 504.881 574.46C505.467 574.994 506.187 575.26 507.041 575.26C508.267 575.26 509.134 574.747 509.641 573.72H512.101C511.767 574.734 511.161 575.567 510.281 576.22C509.414 576.86 508.334 577.18 507.041 577.18C505.987 577.18 505.041 576.947 504.201 576.48C503.374 576 502.721 575.334 502.241 574.48C501.774 573.614 501.541 572.614 501.541 571.48C501.541 570.347 501.767 569.354 502.221 568.5C502.687 567.634 503.334 566.967 504.161 566.5C505.001 566.034 505.961 565.8 507.041 565.8C508.081 565.8 509.007 566.027 509.821 566.48C510.634 566.934 511.267 567.574 511.721 568.4C512.174 569.214 512.401 570.154 512.401 571.22ZM510.021 570.5C510.007 569.66 509.707 568.987 509.121 568.48C508.534 567.974 507.807 567.72 506.941 567.72C506.154 567.72 505.481 567.974 504.921 568.48C504.361 568.974 504.027 569.647 503.921 570.5H510.021ZM516.925 567.58C517.258 567.02 517.698 566.587 518.245 566.28C518.805 565.96 519.465 565.8 520.225 565.8V568.16H519.645C518.751 568.16 518.071 568.387 517.605 568.84C517.151 569.294 516.925 570.08 516.925 571.2V577H514.645V565.98H516.925V567.58ZM521.56 571.44C521.56 570.334 521.787 569.354 522.24 568.5C522.707 567.647 523.334 566.987 524.12 566.52C524.92 566.04 525.8 565.8 526.76 565.8C527.627 565.8 528.38 565.974 529.02 566.32C529.674 566.654 530.194 567.074 530.58 567.58V565.98H532.88V577H530.58V575.36C530.194 575.88 529.667 576.314 529 576.66C528.334 577.007 527.574 577.18 526.72 577.18C525.774 577.18 524.907 576.94 524.12 576.46C523.334 575.967 522.707 575.287 522.24 574.42C521.787 573.54 521.56 572.547 521.56 571.44ZM530.58 571.48C530.58 570.72 530.42 570.06 530.1 569.5C529.794 568.94 529.387 568.514 528.88 568.22C528.374 567.927 527.827 567.78 527.24 567.78C526.654 567.78 526.107 567.927 525.6 568.22C525.094 568.5 524.68 568.92 524.36 569.48C524.054 570.027 523.9 570.68 523.9 571.44C523.9 572.2 524.054 572.867 524.36 573.44C524.68 574.014 525.094 574.454 525.6 574.76C526.12 575.054 526.667 575.2 527.24 575.2C527.827 575.2 528.374 575.054 528.88 574.76C529.387 574.467 529.794 574.04 530.1 573.48C530.42 572.907 530.58 572.24 530.58 571.48ZM538.535 567.84V573.94C538.535 574.354 538.628 574.654 538.815 574.84C539.015 575.014 539.348 575.1 539.815 575.1H541.215V577H539.415C538.388 577 537.602 576.76 537.055 576.28C536.508 575.8 536.235 575.02 536.235 573.94V567.84H534.935V565.98H536.235V563.24H538.535V565.98H541.215V567.84H538.535ZM545.596 563.1V577H543.316V563.1H545.596ZM554.15 565.8C555.017 565.8 555.79 565.98 556.47 566.34C557.163 566.7 557.703 567.234 558.09 567.94C558.477 568.647 558.67 569.5 558.67 570.5V577H556.41V570.84C556.41 569.854 556.163 569.1 555.67 568.58C555.177 568.047 554.503 567.78 553.65 567.78C552.797 567.78 552.117 568.047 551.61 568.58C551.117 569.1 550.87 569.854 550.87 570.84V577H548.59V565.98H550.87V567.24C551.243 566.787 551.717 566.434 552.29 566.18C552.877 565.927 553.497 565.8 554.15 565.8ZM566.018 565.8C566.871 565.8 567.625 565.974 568.278 566.32C568.945 566.654 569.465 567.074 569.838 567.58V565.98H572.138V577.18C572.138 578.194 571.925 579.094 571.498 579.88C571.071 580.68 570.451 581.307 569.638 581.76C568.838 582.214 567.878 582.44 566.758 582.44C565.265 582.44 564.025 582.087 563.038 581.38C562.051 580.687 561.491 579.74 561.358 578.54H563.618C563.791 579.114 564.158 579.574 564.718 579.92C565.291 580.28 565.971 580.46 566.758 580.46C567.678 580.46 568.418 580.18 568.978 579.62C569.551 579.06 569.838 578.247 569.838 577.18V575.34C569.451 575.86 568.925 576.3 568.258 576.66C567.605 577.007 566.858 577.18 566.018 577.18C565.058 577.18 564.178 576.94 563.378 576.46C562.591 575.967 561.965 575.287 561.498 574.42C561.045 573.54 560.818 572.547 560.818 571.44C560.818 570.334 561.045 569.354 561.498 568.5C561.965 567.647 562.591 566.987 563.378 566.52C564.178 566.04 565.058 565.8 566.018 565.8ZM569.838 571.48C569.838 570.72 569.678 570.06 569.358 569.5C569.051 568.94 568.645 568.514 568.138 568.22C567.631 567.927 567.085 567.78 566.498 567.78C565.911 567.78 565.365 567.927 564.858 568.22C564.351 568.5 563.938 568.92 563.618 569.48C563.311 570.027 563.158 570.68 563.158 571.44C563.158 572.2 563.311 572.867 563.618 573.44C563.938 574.014 564.351 574.454 564.858 574.76C565.378 575.054 565.925 575.2 566.498 575.2C567.085 575.2 567.631 575.054 568.138 574.76C568.645 574.467 569.051 574.04 569.358 573.48C569.678 572.907 569.838 572.24 569.838 571.48ZM590.248 565.98L583.488 582.18H581.128L583.368 576.82L579.028 565.98H581.568L584.668 574.38L587.888 565.98H590.248ZM596.749 577.18C595.709 577.18 594.769 576.947 593.929 576.48C593.089 576 592.429 575.334 591.949 574.48C591.469 573.614 591.229 572.614 591.229 571.48C591.229 570.36 591.475 569.367 591.969 568.5C592.462 567.634 593.135 566.967 593.989 566.5C594.842 566.034 595.795 565.8 596.849 565.8C597.902 565.8 598.855 566.034 599.709 566.5C600.562 566.967 601.235 567.634 601.729 568.5C602.222 569.367 602.469 570.36 602.469 571.48C602.469 572.6 602.215 573.594 601.709 574.46C601.202 575.327 600.509 576 599.629 576.48C598.762 576.947 597.802 577.18 596.749 577.18ZM596.749 575.2C597.335 575.2 597.882 575.06 598.389 574.78C598.909 574.5 599.329 574.08 599.649 573.52C599.969 572.96 600.129 572.28 600.129 571.48C600.129 570.68 599.975 570.007 599.669 569.46C599.362 568.9 598.955 568.48 598.449 568.2C597.942 567.92 597.395 567.78 596.809 567.78C596.222 567.78 595.675 567.92 595.169 568.2C594.675 568.48 594.282 568.9 593.989 569.46C593.695 570.007 593.549 570.68 593.549 571.48C593.549 572.667 593.849 573.587 594.449 574.24C595.062 574.88 595.829 575.2 596.749 575.2ZM614.703 565.98V577H612.423V575.7C612.063 576.154 611.589 576.514 611.003 576.78C610.429 577.034 609.816 577.16 609.163 577.16C608.296 577.16 607.516 576.98 606.823 576.62C606.143 576.26 605.603 575.727 605.203 575.02C604.816 574.314 604.623 573.46 604.623 572.46V565.98H606.883V572.12C606.883 573.107 607.129 573.867 607.623 574.4C608.116 574.92 608.789 575.18 609.643 575.18C610.496 575.18 611.169 574.92 611.663 574.4C612.169 573.867 612.423 573.107 612.423 572.12V565.98H614.703ZM619.991 567.58C620.324 567.02 620.764 566.587 621.311 566.28C621.871 565.96 622.531 565.8 623.291 565.8V568.16H622.711C621.818 568.16 621.138 568.387 620.671 568.84C620.218 569.294 619.991 570.08 619.991 571.2V577H617.711V565.98H619.991V567.58ZM643.922 565.8C644.789 565.8 645.562 565.98 646.242 566.34C646.935 566.7 647.475 567.234 647.862 567.94C648.262 568.647 648.462 569.5 648.462 570.5V577H646.202V570.84C646.202 569.854 645.955 569.1 645.462 568.58C644.969 568.047 644.295 567.78 643.442 567.78C642.589 567.78 641.909 568.047 641.402 568.58C640.909 569.1 640.662 569.854 640.662 570.84V577H638.402V570.84C638.402 569.854 638.155 569.1 637.662 568.58C637.169 568.047 636.495 567.78 635.642 567.78C634.789 567.78 634.109 568.047 633.602 568.58C633.109 569.1 632.862 569.854 632.862 570.84V577H630.582V565.98H632.862V567.24C633.235 566.787 633.709 566.434 634.282 566.18C634.855 565.927 635.469 565.8 636.122 565.8C637.002 565.8 637.789 565.987 638.482 566.36C639.175 566.734 639.709 567.274 640.082 567.98C640.415 567.314 640.935 566.787 641.642 566.4C642.349 566 643.109 565.8 643.922 565.8ZM661.343 565.98V577H659.063V575.7C658.703 576.154 658.23 576.514 657.643 576.78C657.07 577.034 656.457 577.16 655.803 577.16C654.937 577.16 654.157 576.98 653.463 576.62C652.783 576.26 652.243 575.727 651.843 575.02C651.457 574.314 651.263 573.46 651.263 572.46V565.98H653.523V572.12C653.523 573.107 653.77 573.867 654.263 574.4C654.757 574.92 655.43 575.18 656.283 575.18C657.137 575.18 657.81 574.92 658.303 574.4C658.81 573.867 659.063 573.107 659.063 572.12V565.98H661.343ZM668.352 577.18C667.485 577.18 666.705 577.027 666.012 576.72C665.332 576.4 664.792 575.974 664.392 575.44C663.992 574.894 663.778 574.287 663.752 573.62H666.112C666.152 574.087 666.372 574.48 666.772 574.8C667.185 575.107 667.698 575.26 668.312 575.26C668.952 575.26 669.445 575.14 669.792 574.9C670.152 574.647 670.332 574.327 670.332 573.94C670.332 573.527 670.132 573.22 669.732 573.02C669.345 572.82 668.725 572.6 667.872 572.36C667.045 572.134 666.372 571.914 665.852 571.7C665.332 571.487 664.878 571.16 664.492 570.72C664.118 570.28 663.932 569.7 663.932 568.98C663.932 568.394 664.105 567.86 664.452 567.38C664.798 566.887 665.292 566.5 665.932 566.22C666.585 565.94 667.332 565.8 668.172 565.8C669.425 565.8 670.432 566.12 671.192 566.76C671.965 567.387 672.378 568.247 672.432 569.34H670.152C670.112 568.847 669.912 568.454 669.552 568.16C669.192 567.867 668.705 567.72 668.092 567.72C667.492 567.72 667.032 567.834 666.712 568.06C666.392 568.287 666.232 568.587 666.232 568.96C666.232 569.254 666.338 569.5 666.552 569.7C666.765 569.9 667.025 570.06 667.332 570.18C667.638 570.287 668.092 570.427 668.692 570.6C669.492 570.814 670.145 571.034 670.652 571.26C671.172 571.474 671.618 571.794 671.992 572.22C672.365 572.647 672.558 573.214 672.572 573.92C672.572 574.547 672.398 575.107 672.052 575.6C671.705 576.094 671.212 576.48 670.572 576.76C669.945 577.04 669.205 577.18 668.352 577.18ZM676.195 564.52C675.782 564.52 675.435 564.38 675.155 564.1C674.875 563.82 674.735 563.474 674.735 563.06C674.735 562.647 674.875 562.3 675.155 562.02C675.435 561.74 675.782 561.6 676.195 561.6C676.595 561.6 676.935 561.74 677.215 562.02C677.495 562.3 677.635 562.647 677.635 563.06C677.635 563.474 677.495 563.82 677.215 564.1C676.935 564.38 676.595 564.52 676.195 564.52ZM677.315 565.98V577H675.035V565.98H677.315ZM679.549 571.48C679.549 570.347 679.775 569.354 680.229 568.5C680.695 567.634 681.335 566.967 682.149 566.5C682.962 566.034 683.895 565.8 684.949 565.8C686.282 565.8 687.382 566.12 688.249 566.76C689.129 567.387 689.722 568.287 690.029 569.46H687.569C687.369 568.914 687.049 568.487 686.609 568.18C686.169 567.874 685.615 567.72 684.949 567.72C684.015 567.72 683.269 568.054 682.709 568.72C682.162 569.374 681.889 570.294 681.889 571.48C681.889 572.667 682.162 573.594 682.709 574.26C683.269 574.927 684.015 575.26 684.949 575.26C686.269 575.26 687.142 574.68 687.569 573.52H690.029C689.709 574.64 689.109 575.534 688.229 576.2C687.349 576.854 686.255 577.18 684.949 577.18C683.895 577.18 682.962 576.947 682.149 576.48C681.335 576 680.695 575.334 680.229 574.48C679.775 573.614 679.549 572.614 679.549 571.48Z" fill="white"/>
<path d="M364.644 239.888L758.644 274.751C774.127 276.121 786 289.09 786 304.634L786 666.797C786 682.514 773.87 695.566 758.196 696.717L364.196 725.637C346.809 726.913 332 713.151 332 695.717L332 269.772C332 252.159 347.101 238.336 364.644 239.888Z" stroke="url(#paint3_linear_658_394)" stroke-width="2"/>
<path opacity="0.6" d="M393.565 280.794L744.564 310.908C760.082 312.24 772 325.224 772 340.799L772 651.807C772 667.549 759.832 680.614 744.13 681.732L393.13 706.713C375.766 707.949 361 694.196 361 676.789L361 310.684C361 293.104 376.048 279.291 393.565 280.794Z" stroke="url(#paint4_linear_658_394)"/>
<g filter="url(#filter3_d_658_394)">
<ellipse cx="769.5" cy="294.253" rx="58.5" ry="58.3806" fill="url(#paint5_linear_658_394)"/>
</g>
<path d="M768.904 301.545H760.008L758.536 305.801H753.832L761.864 283.433H767.08L775.112 305.801H770.376L768.904 301.545ZM767.688 297.961L764.456 288.617L761.224 297.961H767.688ZM782.594 283.465V305.801H778.114V283.465H782.594Z" fill="#F3F4F8"/>
<path d="M719 294.752C719 267.194 741.386 244.854 769 244.854C796.614 244.854 819 267.194 819 294.752" stroke="white" stroke-width="1.04584"/>
<path d="M819 294.752C819 322.31 796.614 344.65 769 344.65C741.386 344.65 719 322.31 719 294.752" stroke="white" stroke-width="1.04584"/>
<g clip-path="url(#clip0_658_394)">
<path d="M542.333 517L548.11 505.443L559.667 499.666L548.11 493.89L542.333 482.333L536.557 493.89L525 499.666L536.557 505.443L542.333 517Z" fill="url(#paint6_linear_658_394)"/>
<path d="M617.442 505.443L628.999 499.666L617.442 493.89L611.666 482.333L605.889 493.89L594.333 499.666L605.889 505.443L611.666 517L617.442 505.443Z" fill="url(#paint7_linear_658_394)"/>
<path d="M582.777 424.557L577.001 413L571.224 424.557L559.667 430.334L571.224 436.11L577.001 447.667L582.777 436.11L594.334 430.334L582.777 424.557Z" fill="url(#paint8_linear_658_394)"/>
<path d="M546.666 473.667C549.059 473.667 550.999 471.727 550.999 469.334C550.999 466.941 549.059 465 546.666 465C544.273 465 542.333 466.941 542.333 469.334C542.333 471.727 544.273 473.667 546.666 473.667Z" fill="url(#paint9_linear_658_394)"/>
<path d="M529.333 456.335C531.727 456.335 533.667 454.395 533.667 452.001C533.667 449.608 531.727 447.668 529.333 447.668C526.94 447.668 525 449.608 525 452.001C525 454.395 526.94 456.335 529.333 456.335Z" fill="url(#paint10_linear_658_394)"/>
<path d="M546.666 439C549.059 439 550.999 437.06 550.999 434.666C550.999 432.273 549.059 430.333 546.666 430.333C544.273 430.333 542.333 432.273 542.333 434.666C542.333 437.06 544.273 439 546.666 439Z" fill="url(#paint11_linear_658_394)"/>
<path d="M529.333 421.667C531.727 421.667 533.667 419.727 533.667 417.334C533.667 414.941 531.727 413 529.333 413C526.94 413 525 414.941 525 417.334C525 419.727 526.94 421.667 529.333 421.667Z" fill="url(#paint12_linear_658_394)"/>
<path d="M624.666 473.667C627.059 473.667 628.999 471.727 628.999 469.334C628.999 466.941 627.059 465 624.666 465C622.273 465 620.333 466.941 620.333 469.334C620.333 471.727 622.273 473.667 624.666 473.667Z" fill="url(#paint13_linear_658_394)"/>
<path d="M607.333 456.335C609.727 456.335 611.667 454.395 611.667 452.001C611.667 449.608 609.727 447.668 607.333 447.668C604.94 447.668 603 449.608 603 452.001C603 454.395 604.94 456.335 607.333 456.335Z" fill="url(#paint14_linear_658_394)"/>
<path d="M624.666 439C627.059 439 628.999 437.06 628.999 434.666C628.999 432.273 627.059 430.333 624.666 430.333C622.273 430.333 620.333 432.273 620.333 434.666C620.333 437.06 622.273 439 624.666 439Z" fill="url(#paint15_linear_658_394)"/>
<path d="M607.333 421.667C609.727 421.667 611.667 419.727 611.667 417.334C611.667 414.941 609.727 413 607.333 413C604.94 413 603 414.941 603 417.334C603 419.727 604.94 421.667 607.333 421.667Z" fill="url(#paint16_linear_658_394)"/>
<path d="M585.666 517C588.059 517 589.999 515.06 589.999 512.666C589.999 510.273 588.059 508.333 585.666 508.333C583.273 508.333 581.333 510.273 581.333 512.666C581.333 515.06 583.273 517 585.666 517Z" fill="url(#paint17_linear_658_394)"/>
<path d="M568.333 499.667C570.727 499.667 572.667 497.727 572.667 495.334C572.667 492.941 570.727 491 568.333 491C565.94 491 564 492.941 564 495.334C564 497.727 565.94 499.667 568.333 499.667Z" fill="url(#paint18_linear_658_394)"/>
<path d="M585.666 482.335C588.059 482.335 589.999 480.395 589.999 478.001C589.999 475.608 588.059 473.668 585.666 473.668C583.273 473.668 581.333 475.608 581.333 478.001C581.333 480.395 583.273 482.335 585.666 482.335Z" fill="url(#paint19_linear_658_394)"/>
<path d="M568.333 465C570.727 465 572.667 463.06 572.667 460.666C572.667 458.273 570.727 456.333 568.333 456.333C565.94 456.333 564 458.273 564 460.666C564 463.06 565.94 465 568.333 465Z" fill="url(#paint20_linear_658_394)"/>
</g>
<path d="M309.5 604C309.5 599.858 312.858 596.5 317 596.5H414C418.142 596.5 421.5 599.858 421.5 604V694C421.5 698.143 418.142 701.5 414 701.5H317C312.858 701.5 309.5 698.143 309.5 694V604Z" fill="#221C1C" stroke="url(#paint21_linear_658_394)"/>
<path d="M356.993 620.545V631H355.628V626.26H350.303V631H348.938V620.545H350.303V625.135H355.628V620.545H356.993ZM366.613 622.78V631H365.248V629.785C364.988 630.205 364.623 630.535 364.153 630.775C363.693 631.005 363.183 631.12 362.623 631.12C361.983 631.12 361.408 630.99 360.898 630.73C360.388 630.46 359.983 630.06 359.683 629.53C359.393 629 359.248 628.355 359.248 627.595V622.78H360.598V627.415C360.598 628.225 360.803 628.85 361.213 629.29C361.623 629.72 362.183 629.935 362.893 629.935C363.623 629.935 364.198 629.71 364.618 629.26C365.038 628.81 365.248 628.155 365.248 627.295V622.78H366.613ZM378.803 622.63C379.443 622.63 380.013 622.765 380.513 623.035C381.013 623.295 381.408 623.69 381.698 624.22C381.988 624.75 382.133 625.395 382.133 626.155V631H380.783V626.35C380.783 625.53 380.578 624.905 380.168 624.475C379.768 624.035 379.223 623.815 378.533 623.815C377.823 623.815 377.258 624.045 376.838 624.505C376.418 624.955 376.208 625.61 376.208 626.47V631H374.858V626.35C374.858 625.53 374.653 624.905 374.243 624.475C373.843 624.035 373.298 623.815 372.608 623.815C371.898 623.815 371.333 624.045 370.913 624.505C370.493 624.955 370.283 625.61 370.283 626.47V631H368.918V622.78H370.283V623.965C370.553 623.535 370.913 623.205 371.363 622.975C371.823 622.745 372.328 622.63 372.878 622.63C373.568 622.63 374.178 622.785 374.708 623.095C375.238 623.405 375.633 623.86 375.893 624.46C376.123 623.88 376.503 623.43 377.033 623.11C377.563 622.79 378.153 622.63 378.803 622.63ZM352.688 643.545L349.658 654H348.128L345.698 645.585L343.178 654L341.663 654.015L338.738 643.545H340.193L342.473 652.41L344.993 643.545H346.523L348.923 652.38L351.218 643.545H352.688ZM358.262 645.63C358.882 645.63 359.442 645.765 359.942 646.035C360.442 646.295 360.832 646.69 361.112 647.22C361.402 647.75 361.547 648.395 361.547 649.155V654H360.197V649.35C360.197 648.53 359.992 647.905 359.582 647.475C359.172 647.035 358.612 646.815 357.902 646.815C357.182 646.815 356.607 647.04 356.177 647.49C355.757 647.94 355.547 648.595 355.547 649.455V654H354.182V642.9H355.547V646.95C355.817 646.53 356.187 646.205 356.657 645.975C357.137 645.745 357.672 645.63 358.262 645.63ZM364.482 644.445C364.222 644.445 364.002 644.355 363.822 644.175C363.642 643.995 363.552 643.775 363.552 643.515C363.552 643.255 363.642 643.035 363.822 642.855C364.002 642.675 364.222 642.585 364.482 642.585C364.732 642.585 364.942 642.675 365.112 642.855C365.292 643.035 365.382 643.255 365.382 643.515C365.382 643.775 365.292 643.995 365.112 644.175C364.942 644.355 364.732 644.445 364.482 644.445ZM365.142 645.78V654H363.777V645.78H365.142ZM370.378 654.135C369.748 654.135 369.183 654.03 368.683 653.82C368.183 653.6 367.788 653.3 367.498 652.92C367.208 652.53 367.048 652.085 367.018 651.585H368.428C368.468 651.995 368.658 652.33 368.998 652.59C369.348 652.85 369.803 652.98 370.363 652.98C370.883 652.98 371.293 652.865 371.593 652.635C371.893 652.405 372.043 652.115 372.043 651.765C372.043 651.405 371.883 651.14 371.563 650.97C371.243 650.79 370.748 650.615 370.078 650.445C369.468 650.285 368.968 650.125 368.578 649.965C368.198 649.795 367.868 649.55 367.588 649.23C367.318 648.9 367.183 648.47 367.183 647.94C367.183 647.52 367.308 647.135 367.558 646.785C367.808 646.435 368.163 646.16 368.623 645.96C369.083 645.75 369.608 645.645 370.198 645.645C371.108 645.645 371.843 645.875 372.403 646.335C372.963 646.795 373.263 647.425 373.303 648.225H371.938C371.908 647.795 371.733 647.45 371.413 647.19C371.103 646.93 370.683 646.8 370.153 646.8C369.663 646.8 369.273 646.905 368.983 647.115C368.693 647.325 368.548 647.6 368.548 647.94C368.548 648.21 368.633 648.435 368.803 648.615C368.983 648.785 369.203 648.925 369.463 649.035C369.733 649.135 370.103 649.25 370.573 649.38C371.163 649.54 371.643 649.7 372.013 649.86C372.383 650.01 372.698 650.24 372.958 650.55C373.228 650.86 373.368 651.265 373.378 651.765C373.378 652.215 373.253 652.62 373.003 652.98C372.753 653.34 372.398 653.625 371.938 653.835C371.488 654.035 370.968 654.135 370.378 654.135ZM376.97 646.905V651.75C376.97 652.15 377.055 652.435 377.225 652.605C377.395 652.765 377.69 652.845 378.11 652.845H379.115V654H377.885C377.125 654 376.555 653.825 376.175 653.475C375.795 653.125 375.605 652.55 375.605 651.75V646.905H374.54V645.78H375.605V643.71H376.97V645.78H379.115V646.905H376.97ZM382.134 642.9V654H380.769V642.9H382.134ZM391.96 649.575C391.96 649.835 391.945 650.11 391.915 650.4H385.345C385.395 651.21 385.67 651.845 386.17 652.305C386.68 652.755 387.295 652.98 388.015 652.98C388.605 652.98 389.095 652.845 389.485 652.575C389.885 652.295 390.165 651.925 390.325 651.465H391.795C391.575 652.255 391.135 652.9 390.475 653.4C389.815 653.89 388.995 654.135 388.015 654.135C387.235 654.135 386.535 653.96 385.915 653.61C385.305 653.26 384.825 652.765 384.475 652.125C384.125 651.475 383.95 650.725 383.95 649.875C383.95 649.025 384.12 648.28 384.46 647.64C384.8 647 385.275 646.51 385.885 646.17C386.505 645.82 387.215 645.645 388.015 645.645C388.795 645.645 389.485 645.815 390.085 646.155C390.685 646.495 391.145 646.965 391.465 647.565C391.795 648.155 391.96 648.825 391.96 649.575ZM390.55 649.29C390.55 648.77 390.435 648.325 390.205 647.955C389.975 647.575 389.66 647.29 389.26 647.1C388.87 646.9 388.435 646.8 387.955 646.8C387.265 646.8 386.675 647.02 386.185 647.46C385.705 647.9 385.43 648.51 385.36 649.29H390.55ZM330.136 666.62V677H328.771V669.26L325.321 677H324.361L320.896 669.245V677H319.531V666.62H321.001L324.841 675.2L328.681 666.62H330.136ZM339.741 668.78V677H338.376V675.785C338.116 676.205 337.751 676.535 337.281 676.775C336.821 677.005 336.311 677.12 335.751 677.12C335.111 677.12 334.536 676.99 334.026 676.73C333.516 676.46 333.111 676.06 332.811 675.53C332.521 675 332.376 674.355 332.376 673.595V668.78H333.726V673.415C333.726 674.225 333.931 674.85 334.341 675.29C334.751 675.72 335.311 675.935 336.021 675.935C336.751 675.935 337.326 675.71 337.746 675.26C338.166 674.81 338.376 674.155 338.376 673.295V668.78H339.741ZM344.956 677.135C344.326 677.135 343.761 677.03 343.261 676.82C342.761 676.6 342.366 676.3 342.076 675.92C341.786 675.53 341.626 675.085 341.596 674.585H343.006C343.046 674.995 343.236 675.33 343.576 675.59C343.926 675.85 344.381 675.98 344.941 675.98C345.461 675.98 345.871 675.865 346.171 675.635C346.471 675.405 346.621 675.115 346.621 674.765C346.621 674.405 346.461 674.14 346.141 673.97C345.821 673.79 345.326 673.615 344.656 673.445C344.046 673.285 343.546 673.125 343.156 672.965C342.776 672.795 342.446 672.55 342.166 672.23C341.896 671.9 341.761 671.47 341.761 670.94C341.761 670.52 341.886 670.135 342.136 669.785C342.386 669.435 342.741 669.16 343.201 668.96C343.661 668.75 344.186 668.645 344.776 668.645C345.686 668.645 346.421 668.875 346.981 669.335C347.541 669.795 347.841 670.425 347.881 671.225H346.516C346.486 670.795 346.311 670.45 345.991 670.19C345.681 669.93 345.261 669.8 344.731 669.8C344.241 669.8 343.851 669.905 343.561 670.115C343.271 670.325 343.126 670.6 343.126 670.94C343.126 671.21 343.211 671.435 343.381 671.615C343.561 671.785 343.781 671.925 344.041 672.035C344.311 672.135 344.681 672.25 345.151 672.38C345.741 672.54 346.221 672.7 346.591 672.86C346.961 673.01 347.276 673.24 347.536 673.55C347.806 673.86 347.946 674.265 347.956 674.765C347.956 675.215 347.831 675.62 347.581 675.98C347.331 676.34 346.976 676.625 346.516 676.835C346.066 677.035 345.546 677.135 344.956 677.135ZM350.588 667.445C350.328 667.445 350.108 667.355 349.928 667.175C349.748 666.995 349.658 666.775 349.658 666.515C349.658 666.255 349.748 666.035 349.928 665.855C350.108 665.675 350.328 665.585 350.588 665.585C350.838 665.585 351.048 665.675 351.218 665.855C351.398 666.035 351.488 666.255 351.488 666.515C351.488 666.775 351.398 666.995 351.218 667.175C351.048 667.355 350.838 667.445 350.588 667.445ZM351.248 668.78V677H349.883V668.78H351.248ZM353.064 672.875C353.064 672.025 353.234 671.285 353.574 670.655C353.914 670.015 354.384 669.52 354.984 669.17C355.594 668.82 356.289 668.645 357.069 668.645C358.079 668.645 358.909 668.89 359.559 669.38C360.219 669.87 360.654 670.55 360.864 671.42H359.394C359.254 670.92 358.979 670.525 358.569 670.235C358.169 669.945 357.669 669.8 357.069 669.8C356.289 669.8 355.659 670.07 355.179 670.61C354.699 671.14 354.459 671.895 354.459 672.875C354.459 673.865 354.699 674.63 355.179 675.17C355.659 675.71 356.289 675.98 357.069 675.98C357.669 675.98 358.169 675.84 358.569 675.56C358.969 675.28 359.244 674.88 359.394 674.36H360.864C360.644 675.2 360.204 675.875 359.544 676.385C358.884 676.885 358.059 677.135 357.069 677.135C356.289 677.135 355.594 676.96 354.984 676.61C354.384 676.26 353.914 675.765 353.574 675.125C353.234 674.485 353.064 673.735 353.064 672.875ZM362.175 672.86C362.175 672.02 362.345 671.285 362.685 670.655C363.025 670.015 363.49 669.52 364.08 669.17C364.68 668.82 365.345 668.645 366.075 668.645C366.795 668.645 367.42 668.8 367.95 669.11C368.48 669.42 368.875 669.81 369.135 670.28V668.78H370.515V677H369.135V675.47C368.865 675.95 368.46 676.35 367.92 676.67C367.39 676.98 366.77 677.135 366.06 677.135C365.33 677.135 364.67 676.955 364.08 676.595C363.49 676.235 363.025 675.73 362.685 675.08C362.345 674.43 362.175 673.69 362.175 672.86ZM369.135 672.875C369.135 672.255 369.01 671.715 368.76 671.255C368.51 670.795 368.17 670.445 367.74 670.205C367.32 669.955 366.855 669.83 366.345 669.83C365.835 669.83 365.37 669.95 364.95 670.19C364.53 670.43 364.195 670.78 363.945 671.24C363.695 671.7 363.57 672.24 363.57 672.86C363.57 673.49 363.695 674.04 363.945 674.51C364.195 674.97 364.53 675.325 364.95 675.575C365.37 675.815 365.835 675.935 366.345 675.935C366.855 675.935 367.32 675.815 367.74 675.575C368.17 675.325 368.51 674.97 368.76 674.51C369.01 674.04 369.135 673.495 369.135 672.875ZM374.187 665.9V677H372.822V665.9H374.187ZM381.877 666.545V677H380.512V666.545H381.877ZM383.694 672.86C383.694 672.02 383.864 671.285 384.204 670.655C384.544 670.015 385.009 669.52 385.599 669.17C386.199 668.82 386.869 668.645 387.609 668.645C388.249 668.645 388.844 668.795 389.394 669.095C389.944 669.385 390.364 669.77 390.654 670.25V665.9H392.034V677H390.654V675.455C390.384 675.945 389.984 676.35 389.454 676.67C388.924 676.98 388.304 677.135 387.594 677.135C386.864 677.135 386.199 676.955 385.599 676.595C385.009 676.235 384.544 675.73 384.204 675.08C383.864 674.43 383.694 673.69 383.694 672.86ZM390.654 672.875C390.654 672.255 390.529 671.715 390.279 671.255C390.029 670.795 389.689 670.445 389.259 670.205C388.839 669.955 388.374 669.83 387.864 669.83C387.354 669.83 386.889 669.95 386.469 670.19C386.049 670.43 385.714 670.78 385.464 671.24C385.214 671.7 385.089 672.24 385.089 672.86C385.089 673.49 385.214 674.04 385.464 674.51C385.714 674.97 386.049 675.325 386.469 675.575C386.889 675.815 387.354 675.935 387.864 675.935C388.374 675.935 388.839 675.815 389.259 675.575C389.689 675.325 390.029 674.97 390.279 674.51C390.529 674.04 390.654 673.495 390.654 672.875ZM401.841 672.575C401.841 672.835 401.826 673.11 401.796 673.4H395.226C395.276 674.21 395.551 674.845 396.051 675.305C396.561 675.755 397.176 675.98 397.896 675.98C398.486 675.98 398.976 675.845 399.366 675.575C399.766 675.295 400.046 674.925 400.206 674.465H401.676C401.456 675.255 401.016 675.9 400.356 676.4C399.696 676.89 398.876 677.135 397.896 677.135C397.116 677.135 396.416 676.96 395.796 676.61C395.186 676.26 394.706 675.765 394.356 675.125C394.006 674.475 393.831 673.725 393.831 672.875C393.831 672.025 394.001 671.28 394.341 670.64C394.681 670 395.156 669.51 395.766 669.17C396.386 668.82 397.096 668.645 397.896 668.645C398.676 668.645 399.366 668.815 399.966 669.155C400.566 669.495 401.026 669.965 401.346 670.565C401.676 671.155 401.841 671.825 401.841 672.575ZM400.431 672.29C400.431 671.77 400.316 671.325 400.086 670.955C399.856 670.575 399.541 670.29 399.141 670.1C398.751 669.9 398.316 669.8 397.836 669.8C397.146 669.8 396.556 670.02 396.066 670.46C395.586 670.9 395.311 671.51 395.241 672.29H400.431ZM403.132 672.86C403.132 672.02 403.302 671.285 403.642 670.655C403.982 670.015 404.447 669.52 405.037 669.17C405.637 668.82 406.302 668.645 407.032 668.645C407.752 668.645 408.377 668.8 408.907 669.11C409.437 669.42 409.832 669.81 410.092 670.28V668.78H411.472V677H410.092V675.47C409.822 675.95 409.417 676.35 408.877 676.67C408.347 676.98 407.727 677.135 407.017 677.135C406.287 677.135 405.627 676.955 405.037 676.595C404.447 676.235 403.982 675.73 403.642 675.08C403.302 674.43 403.132 673.69 403.132 672.86ZM410.092 672.875C410.092 672.255 409.967 671.715 409.717 671.255C409.467 670.795 409.127 670.445 408.697 670.205C408.277 669.955 407.812 669.83 407.302 669.83C406.792 669.83 406.327 669.95 405.907 670.19C405.487 670.43 405.152 670.78 404.902 671.24C404.652 671.7 404.527 672.24 404.527 672.86C404.527 673.49 404.652 674.04 404.902 674.51C405.152 674.97 405.487 675.325 405.907 675.575C406.327 675.815 406.792 675.935 407.302 675.935C407.812 675.935 408.277 675.815 408.697 675.575C409.127 675.325 409.467 674.97 409.717 674.51C409.967 674.04 410.092 673.495 410.092 672.875Z" fill="white"/>
<circle cx="304" cy="592" r="28" fill="url(#paint22_linear_658_394)"/>
<path d="M304 581C303.204 581 302.441 581.316 301.879 581.879C301.316 582.441 301 583.204 301 584V592C301 592.796 301.316 593.559 301.879 594.121C302.441 594.684 303.204 595 304 595C304.796 595 305.559 594.684 306.121 594.121C306.684 593.559 307 592.796 307 592V584C307 583.204 306.684 582.441 306.121 581.879C305.559 581.316 304.796 581 304 581Z" stroke="white" stroke-width="2" stroke-linecap="round" stroke-linejoin="round"/>
<path d="M311 590V592C311 593.857 310.263 595.637 308.95 596.95C307.637 598.263 305.857 599 304 599C302.143 599 300.363 598.263 299.05 596.95C297.737 595.637 297 593.857 297 592V590" stroke="white" stroke-width="2" stroke-linecap="round" stroke-linejoin="round"/>
<path d="M304 599V603" stroke="white" stroke-width="2" stroke-linecap="round" stroke-linejoin="round"/>
<path d="M300 603H308" stroke="white" stroke-width="2" stroke-linecap="round" stroke-linejoin="round"/>
<circle cx="476" cy="685" r="28" fill="url(#paint23_linear_658_394)"/>
<path d="M471 691V678L483 676V689" stroke="white" stroke-width="2" stroke-linecap="round" stroke-linejoin="round"/>
<path d="M468 694C469.657 694 471 692.657 471 691C471 689.343 469.657 688 468 688C466.343 688 465 689.343 465 691C465 692.657 466.343 694 468 694Z" stroke="white" stroke-width="2" stroke-linecap="round" stroke-linejoin="round"/>
<path d="M480 692C481.657 692 483 690.657 483 689C483 687.343 481.657 686 480 686C478.343 686 477 687.343 477 689C477 690.657 478.343 692 480 692Z" stroke="white" stroke-width="2" stroke-linecap="round" stroke-linejoin="round"/>
<defs>
<filter id="filter0_f_658_394" x="0.826172" y="0.0419922" width="1108.05" height="1128.72" filterUnits="userSpaceOnUse" color-interpolation-filters="sRGB">
<feFlood flood-opacity="0" result="BackgroundImageFix"/>
<feBlend mode="normal" in="SourceGraphic" in2="BackgroundImageFix" result="shape"/>
<feGaussianBlur stdDeviation="100" result="effect1_foregroundBlur_658_394"/>
</filter>
<filter id="filter1_f_658_394" x="56.1157" y="75.1768" width="718.084" height="733.212" filterUnits="userSpaceOnUse" color-interpolation-filters="sRGB">
<feFlood flood-opacity="0" result="BackgroundImageFix"/>
<feBlend mode="normal" in="SourceGraphic" in2="BackgroundImageFix" result="shape"/>
<feGaussianBlur stdDeviation="50" result="effect1_foregroundBlur_658_394"/>
</filter>
<filter id="filter2_d_658_394" x="367" y="287.721" width="417" height="416.28" filterUnits="userSpaceOnUse" color-interpolation-filters="sRGB">
<feFlood flood-opacity="0" result="BackgroundImageFix"/>
<feColorMatrix in="SourceAlpha" type="matrix" values="0 0 0 0 0 0 0 0 0 0 0 0 0 0 0 0 0 0 127 0" result="hardAlpha"/>
<feOffset dy="10"/>
<feGaussianBlur stdDeviation="15"/>
<feColorMatrix type="matrix" values="0 0 0 0 0 0 0 0 0 0 0 0 0 0 0 0 0 0 0.25 0"/>
<feBlend mode="normal" in2="BackgroundImageFix" result="effect1_dropShadow_658_394"/>
<feBlend mode="normal" in="SourceGraphic" in2="effect1_dropShadow_658_394" result="shape"/>
</filter>
<filter id="filter3_d_658_394" x="695.312" y="225.414" width="148.375" height="148.137" filterUnits="userSpaceOnUse" color-interpolation-filters="sRGB">
<feFlood flood-opacity="0" result="BackgroundImageFix"/>
<feColorMatrix in="SourceAlpha" type="matrix" values="0 0 0 0 0 0 0 0 0 0 0 0 0 0 0 0 0 0 127 0" result="hardAlpha"/>
<feOffset dy="5.22922"/>
<feGaussianBlur stdDeviation="7.84383"/>
<feColorMatrix type="matrix" values="0 0 0 0 0 0 0 0 0 0 0 0 0 0 0 0 0 0 0.2 0"/>
<feBlend mode="normal" in2="BackgroundImageFix" result="effect1_dropShadow_658_394"/>
<feBlend mode="normal" in="SourceGraphic" in2="effect1_dropShadow_658_394" result="shape"/>
</filter>
<linearGradient id="paint0_linear_658_394" x1="554.85" y1="210.385" x2="554.85" y2="918.422" gradientUnits="userSpaceOnUse">
<stop stop-color="#FF7BCA"/>
<stop offset="1" stop-color="#FFC56F" stop-opacity="0.46"/>
</linearGradient>
<linearGradient id="paint1_linear_658_394" x1="415.158" y1="182.745" x2="415.158" y2="700.821" gradientUnits="userSpaceOnUse">
<stop stop-color="#F22F81"/>
<stop offset="1" stop-color="#F58A25" stop-opacity="0"/>
<stop offset="1" stop-color="#7061A3"/>
</linearGradient>
<linearGradient id="paint2_linear_658_394" x1="575.5" y1="309.721" x2="774.557" y2="413.931" gradientUnits="userSpaceOnUse">
<stop stop-color="#825AF6"/>
<stop offset="1" stop-color="#B199F5"/>
</linearGradient>
<linearGradient id="paint3_linear_658_394" x1="332" y1="237" x2="748.986" y2="204.23" gradientUnits="userSpaceOnUse">
<stop stop-color="#825AF6"/>
<stop offset="1" stop-color="#D7005A"/>
</linearGradient>
<linearGradient id="paint4_linear_658_394" x1="772" y1="493.5" x2="641.517" y2="731.663" gradientUnits="userSpaceOnUse">
<stop stop-color="#D7005A"/>
<stop offset="1" stop-color="#825AF6"/>
</linearGradient>
<linearGradient id="paint5_linear_658_394" x1="769.5" y1="235.872" x2="769.5" y2="352.633" gradientUnits="userSpaceOnUse">
<stop stop-color="#D7005A"/>
<stop offset="1" stop-color="#FD98AB"/>
</linearGradient>
<linearGradient id="paint6_linear_658_394" x1="542.333" y1="482.333" x2="542.333" y2="517" gradientUnits="userSpaceOnUse">
<stop stop-color="#7439B1"/>
<stop offset="1" stop-color="#B199F8"/>
</linearGradient>
<linearGradient id="paint7_linear_658_394" x1="611.666" y1="482.333" x2="611.666" y2="517" gradientUnits="userSpaceOnUse">
<stop stop-color="#7439B1"/>
<stop offset="1" stop-color="#B199F8"/>
</linearGradient>
<linearGradient id="paint8_linear_658_394" x1="577.001" y1="413" x2="577.001" y2="447.667" gradientUnits="userSpaceOnUse">
<stop stop-color="#7439B1"/>
<stop offset="1" stop-color="#B199F8"/>
</linearGradient>
<linearGradient id="paint9_linear_658_394" x1="546.666" y1="465" x2="546.666" y2="473.667" gradientUnits="userSpaceOnUse">
<stop stop-color="#7439B1"/>
<stop offset="1" stop-color="#B199F8"/>
</linearGradient>
<linearGradient id="paint10_linear_658_394" x1="529.333" y1="447.668" x2="529.333" y2="456.335" gradientUnits="userSpaceOnUse">
<stop stop-color="#7439B1"/>
<stop offset="1" stop-color="#B199F8"/>
</linearGradient>
<linearGradient id="paint11_linear_658_394" x1="546.666" y1="430.333" x2="546.666" y2="439" gradientUnits="userSpaceOnUse">
<stop stop-color="#7439B1"/>
<stop offset="1" stop-color="#B199F8"/>
</linearGradient>
<linearGradient id="paint12_linear_658_394" x1="529.333" y1="413" x2="529.333" y2="421.667" gradientUnits="userSpaceOnUse">
<stop stop-color="#7439B1"/>
<stop offset="1" stop-color="#B199F8"/>
</linearGradient>
<linearGradient id="paint13_linear_658_394" x1="624.666" y1="465" x2="624.666" y2="473.667" gradientUnits="userSpaceOnUse">
<stop stop-color="#7439B1"/>
<stop offset="1" stop-color="#B199F8"/>
</linearGradient>
<linearGradient id="paint14_linear_658_394" x1="607.333" y1="447.668" x2="607.333" y2="456.335" gradientUnits="userSpaceOnUse">
<stop stop-color="#7439B1"/>
<stop offset="1" stop-color="#B199F8"/>
</linearGradient>
<linearGradient id="paint15_linear_658_394" x1="624.666" y1="430.333" x2="624.666" y2="439" gradientUnits="userSpaceOnUse">
<stop stop-color="#7439B1"/>
<stop offset="1" stop-color="#B199F8"/>
</linearGradient>
<linearGradient id="paint16_linear_658_394" x1="607.333" y1="413" x2="607.333" y2="421.667" gradientUnits="userSpaceOnUse">
<stop stop-color="#7439B1"/>
<stop offset="1" stop-color="#B199F8"/>
</linearGradient>
<linearGradient id="paint17_linear_658_394" x1="585.666" y1="508.333" x2="585.666" y2="517" gradientUnits="userSpaceOnUse">
<stop stop-color="#7439B1"/>
<stop offset="1" stop-color="#B199F8"/>
</linearGradient>
<linearGradient id="paint18_linear_658_394" x1="568.333" y1="491" x2="568.333" y2="499.667" gradientUnits="userSpaceOnUse">
<stop stop-color="#7439B1"/>
<stop offset="1" stop-color="#B199F8"/>
</linearGradient>
<linearGradient id="paint19_linear_658_394" x1="585.666" y1="473.668" x2="585.666" y2="482.335" gradientUnits="userSpaceOnUse">
<stop stop-color="#7439B1"/>
<stop offset="1" stop-color="#B199F8"/>
</linearGradient>
<linearGradient id="paint20_linear_658_394" x1="568.333" y1="456.333" x2="568.333" y2="465" gradientUnits="userSpaceOnUse">
<stop stop-color="#7439B1"/>
<stop offset="1" stop-color="#B199F8"/>
</linearGradient>
<linearGradient id="paint21_linear_658_394" x1="309" y1="596" x2="429.357" y2="692.859" gradientUnits="userSpaceOnUse">
<stop stop-color="#825AF6"/>
<stop offset="1" stop-color="#B373F5"/>
</linearGradient>
<linearGradient id="paint22_linear_658_394" x1="276" y1="564" x2="332" y2="620" gradientUnits="userSpaceOnUse">
<stop stop-color="#825AF6"/>
<stop offset="1" stop-color="#7439B1"/>
</linearGradient>
<linearGradient id="paint23_linear_658_394" x1="448" y1="657" x2="504" y2="713" gradientUnits="userSpaceOnUse">
<stop stop-color="#825AF6"/>
<stop offset="1" stop-color="#7439B1"/>
</linearGradient>
<clipPath id="clip0_658_394">
<rect width="104" height="104" fill="white" transform="translate(525 413)"/>
</clipPath>
</defs>
</svg>
